<?xml version="1.0" encoding="utf-8"?>
<!-- Generator: Adobe Illustrator 25.0.1, SVG Export Plug-In . SVG Version: 6.00 Build 0)  -->
<svg version="1.0" id="Layer_1" xmlns="http://www.w3.org/2000/svg" xmlns:xlink="http://www.w3.org/1999/xlink" x="0px" y="0px"
	 viewBox="0 0 249.2 187.9" style="enable-background:new 0 0 249.2 187.9;" xml:space="preserve">
<style type="text/css">
	.st0{clip-path:url(#SVGID_2_);}
	.st1{clip-path:url(#SVGID_4_);}
	.st2{clip-path:url(#SVGID_6_);}
	.st3{clip-path:url(#SVGID_8_);}
	.st4{fill:#9FD6DB;}
	.st5{clip-path:url(#SVGID_10_);}
	.st6{fill:#E0E276;}
	.st7{clip-path:url(#SVGID_12_);}
	.st8{fill:#3D8CBF;}
	.st9{clip-path:url(#SVGID_14_);}
	.st10{fill:#D0232B;}
	.st11{clip-path:url(#SVGID_16_);}
	.st12{clip-path:url(#SVGID_18_);}
	.st13{clip-path:url(#SVGID_20_);}
	.st14{clip-path:url(#SVGID_22_);}
	.st15{clip-path:url(#SVGID_24_);}
	.st16{clip-path:url(#SVGID_26_);}
	.st17{clip-path:url(#SVGID_28_);}
	.st18{clip-path:url(#SVGID_30_);}
	.st19{clip-path:url(#SVGID_32_);}
	.st20{clip-path:url(#SVGID_34_);}
</style>
<g>
	<defs>
		<rect id="SVGID_1_" x="189.7" y="57" width="15.4" height="17.6"/>
	</defs>
	<clipPath id="SVGID_2_">
		<use xlink:href="#SVGID_1_"  style="overflow:visible;"/>
	</clipPath>
	<g class="st0">
		<g>
			<g>
				<defs>
					<rect id="SVGID_3_" x="189.1" y="57" width="19" height="23"/>
				</defs>
				<clipPath id="SVGID_4_">
					<use xlink:href="#SVGID_3_"  style="overflow:visible;"/>
				</clipPath>
				<g class="st1">
					<g>
						<defs>
							<path id="SVGID_5_" d="M204.8,57l-15.1,15C189.7,72,207.6,83.7,204.8,57"/>
						</defs>
						<clipPath id="SVGID_6_">
							<use xlink:href="#SVGID_5_"  style="overflow:visible;"/>
						</clipPath>
						<g class="st2">
							<g>
								<defs>
									<rect id="SVGID_7_" x="189.1" y="57" width="16" height="18"/>
								</defs>
								<clipPath id="SVGID_8_">
									<use xlink:href="#SVGID_7_"  style="overflow:visible;"/>
								</clipPath>
								<g class="st3">
									<rect x="184.7" y="52" class="st4" width="25.4" height="27.6"/>
								</g>
							</g>
						</g>
					</g>
				</g>
			</g>
		</g>
	</g>
</g>
<g>
	<defs>
		<path id="SVGID_9_" d="M171.4,90l14.7-15.4C186.1,74.6,168.7,62.6,171.4,90"/>
	</defs>
	<clipPath id="SVGID_10_">
		<use xlink:href="#SVGID_9_"  style="overflow:visible;"/>
	</clipPath>
	<g class="st5">
		<rect x="166.1" y="67" class="st6" width="25" height="28"/>
	</g>
</g>
<g>
	<defs>
		<path id="SVGID_11_" d="M204.9,89.6l-14.9-15C190,74.6,178.3,92.3,204.9,89.6"/>
	</defs>
	<clipPath id="SVGID_12_">
		<use xlink:href="#SVGID_11_"  style="overflow:visible;"/>
	</clipPath>
	<g class="st7">
		<rect x="182.4" y="69.6" class="st8" width="27.5" height="25.2"/>
	</g>
</g>
<g>
	<defs>
		<path id="SVGID_13_" d="M172.2,56.8l14.9,15C187.2,71.8,198.8,54.2,172.2,56.8"/>
	</defs>
	<clipPath id="SVGID_14_">
		<use xlink:href="#SVGID_13_"  style="overflow:visible;"/>
	</clipPath>
	<g class="st9">
		<rect x="167.2" y="51.6" class="st10" width="27.5" height="25.2"/>
	</g>
</g>
<g>
	<defs>
		<polyline id="SVGID_15_" points="49.5,60 49.5,71.8 62.2,71.8 62.2,74.8 49.5,74.8 49.5,90 46.1,90 46.1,57 64.1,57 64.1,60 
			49.5,60 		"/>
	</defs>
	<use xlink:href="#SVGID_15_"  style="overflow:visible;"/>
	<clipPath id="SVGID_16_">
		<use xlink:href="#SVGID_15_"  style="overflow:visible;"/>
	</clipPath>
	<g class="st11">
		<rect x="41.1" y="52" width="28" height="43"/>
	</g>
</g>
<g>
	<defs>
		<path id="SVGID_17_" d="M130.7,89.4v-5.1c-2.4,3.6-6.4,5.7-10.7,5.7c-6.6,0-10.9-4.8-10.9-11.6V57h3.5v21.4c0,5.1,3,8.7,7.8,8.7
			c6.1,0,9-5.1,10.2-7.1V57h3.4v32.4H130.7"/>
	</defs>
	<use xlink:href="#SVGID_17_"  style="overflow:visible;"/>
	<clipPath id="SVGID_18_">
		<use xlink:href="#SVGID_17_"  style="overflow:visible;"/>
	</clipPath>
	<g class="st12">
		<rect x="104.1" y="52" width="35" height="43"/>
	</g>
</g>
<g>
	<defs>
		<path id="SVGID_19_" d="M163.7,90c-2.9,0-4-1.4-5.3-3.2l-7.8-11h-4v13.6h-3.6V57h7.9c7.2,0,11.5,3.6,11.5,9.4c0,5.1-3.8,8.1-8,9.1
			l7.1,9.8c1,1.3,1.8,2.1,2.9,2.1c0.9,0,1.7-0.4,2.3-1.1l1.4,1.2C167.2,89,165.5,90,163.7,90z M150.7,60h-4v13.1h3.8
			c4,0,8.5-1.7,8.5-6.8C158.9,62,156.1,60,150.7,60z"/>
	</defs>
	<use xlink:href="#SVGID_19_"  style="overflow:visible;"/>
	<clipPath id="SVGID_20_">
		<use xlink:href="#SVGID_19_"  style="overflow:visible;"/>
	</clipPath>
	<g class="st13">
		<rect x="138.1" y="52" width="35" height="43"/>
	</g>
</g>
<g>
	<defs>
		<path id="SVGID_21_" d="M86.1,91c-10.3,0-18-7.9-18-17.5S75.8,56,86.1,56s18,7.8,18,17.5S96.4,91,86.1,91z M86.1,59
			c-7.9-0.1-14.3,6.2-14.4,14.1c0,0.1,0,0.2,0,0.4c0,8,6.5,14.4,14.4,14.4s14.4-6.5,14.4-14.4c0.1-7.9-6.2-14.4-14-14.5
			C86.4,59,86.2,59,86.1,59z"/>
	</defs>
	<use xlink:href="#SVGID_21_"  style="overflow:visible;"/>
	<clipPath id="SVGID_22_">
		<use xlink:href="#SVGID_21_"  style="overflow:visible;"/>
	</clipPath>
	<g class="st14">
		<rect x="63.1" y="51" width="46" height="45"/>
	</g>
</g>
<g>
	<defs>
		<path id="SVGID_23_" d="M54.4,117.7h-4.9V132h-3.4V99h8.2c6.8,0,10.9,3.6,10.9,9.3C65.1,114.8,59.4,117.7,54.4,117.7z M54,102
			h-4.5v12.9h4.3c3.7,0,7.8-1.7,7.8-6.7C61.6,104.1,59,102,54,102z"/>
	</defs>
	<use xlink:href="#SVGID_23_"  style="overflow:visible;"/>
	<clipPath id="SVGID_24_">
		<use xlink:href="#SVGID_23_"  style="overflow:visible;"/>
	</clipPath>
	<g class="st15">
		<rect x="41.1" y="94" width="29" height="43"/>
	</g>
</g>
<g>
	<defs>
		<path id="SVGID_25_" d="M86.1,133c-10.3,0-18-7.9-18-17.5S75.8,98,86.1,98s18,7.8,18,17.5S96.4,133,86.1,133z M86.1,101
			c-8,0-14.5,6.4-14.5,14.4c0,8,6.4,14.5,14.4,14.5s14.5-6.4,14.5-14.4c0,0,0,0,0,0c0.1-7.9-6.2-14.4-14.1-14.5
			C86.4,101,86.2,101,86.1,101z"/>
	</defs>
	<use xlink:href="#SVGID_25_"  style="overflow:visible;"/>
	<clipPath id="SVGID_26_">
		<use xlink:href="#SVGID_25_"  style="overflow:visible;"/>
	</clipPath>
	<g class="st16">
		<rect x="63.1" y="93" width="46" height="45"/>
	</g>
</g>
<g>
	<defs>
		<rect id="SVGID_27_" x="111.1" y="99" width="3" height="33"/>
	</defs>
	<use xlink:href="#SVGID_27_"  style="overflow:visible;"/>
	<clipPath id="SVGID_28_">
		<use xlink:href="#SVGID_27_"  style="overflow:visible;"/>
	</clipPath>
	<g class="st17">
		<rect x="106.1" y="94" width="13" height="43"/>
	</g>
</g>
<g>
	<defs>
		<polyline id="SVGID_29_" points="148.7,132 148.7,125.1 128.5,104.9 128.5,132 125.1,132 125.1,99 127.2,99 148.7,120.5 148.7,99 
			152.1,99 152.1,132 148.7,132 		"/>
	</defs>
	<use xlink:href="#SVGID_29_"  style="overflow:visible;"/>
	<clipPath id="SVGID_30_">
		<use xlink:href="#SVGID_29_"  style="overflow:visible;"/>
	</clipPath>
	<g class="st18">
		<rect x="120.1" y="94" width="37" height="43"/>
	</g>
</g>
<g>
	<defs>
		<polyline id="SVGID_31_" points="172.3,102 172.3,132 168.9,132 168.9,102 157.1,102 157.1,99 184.1,99 184.1,102 172.3,102 		"/>
	</defs>
	<use xlink:href="#SVGID_31_"  style="overflow:visible;"/>
	<clipPath id="SVGID_32_">
		<use xlink:href="#SVGID_31_"  style="overflow:visible;"/>
	</clipPath>
	<g class="st19">
		<rect x="152.1" y="94" width="37" height="43"/>
	</g>
</g>
<g>
	<defs>
		<path id="SVGID_33_" d="M193.9,133c-3.1-0.1-6.1-0.9-8.8-2.4v-3.8c1.4,0.9,5.4,3.1,8.8,3.1c3.8,0,6.8-2,6.8-5.5
			c0-2.7-2.7-4.8-4.7-6.2l-5-3.3c-2.5-1.6-5.5-4.1-5.5-8.3c0-5.7,4.1-8.6,9.2-8.6c2.6,0,5.2,0.7,7.5,1.9v3.5
			c-2.2-1.4-4.8-2.3-7.4-2.4c-3.6,0-5.9,2.2-5.9,5.3c0,2.7,2.3,4.4,4.5,5.9l4.7,3.2c2.4,1.6,6,4.2,6,8.8
			C204.1,129.6,199.8,133,193.9,133"/>
	</defs>
	<use xlink:href="#SVGID_33_"  style="overflow:visible;"/>
	<clipPath id="SVGID_34_">
		<use xlink:href="#SVGID_33_"  style="overflow:visible;"/>
	</clipPath>
	<g class="st20">
		<rect x="180.1" y="93" width="29" height="45"/>
	</g>
</g>
</svg>
