<?xml version="1.0" encoding="UTF-8" standalone="no"?>
<svg id="svg2" xmlns:rdf="http://www.w3.org/1999/02/22-rdf-syntax-ns#" xmlns="http://www.w3.org/2000/svg" xml:space="preserve" height="336" viewBox="0 0 271.77332 336" width="271.77" version="1.1" xmlns:cc="http://creativecommons.org/ns#" xmlns:dc="http://purl.org/dc/elements/1.1/"><metadata id="metadata8"><rdf:RDF><cc:Work rdf:about=""><dc:format>image/svg+xml</dc:format><dc:type rdf:resource="http://purl.org/dc/dcmitype/StillImage"/><dc:title/></cc:Work></rdf:RDF></metadata><path id="path28" d="m197.72 322.97h-5.1347v-2.5063h13.119v2.5063h-5.124v12.618h-2.86v-12.618m-17.953 0h-5.1333v-2.5063h13.111v2.5063h-5.1187v12.618h-2.8587v-12.618m-16.729 10.328c0.736 0 1.4227-0.13438 2.024-0.42656 0.608-0.29063 1.1187-0.67344 1.54-1.1839 0.41733-0.48281 0.75067-1.051 0.97333-1.7026 0.22534-0.65209 0.33867-1.3323 0.33867-2.0495 0-0.72032-0.11333-1.4016-0.33867-2.0469-0.22266-0.64114-0.556-1.2-0.97333-1.6823-0.42133-0.48697-0.932-0.87083-1.54-1.1469-0.60133-0.27188-1.288-0.41976-2.024-0.41976-0.76 0-1.44 0.14788-2.0293 0.41976-0.58667 0.27604-1.108 0.6599-1.5253 1.1469-0.42933 0.48229-0.75866 1.0412-0.98133 1.6823-0.232 0.64532-0.34133 1.3266-0.34133 2.0469 0 0.71719 0.10933 1.3974 0.34133 2.0495 0.22267 0.65156 0.552 1.2198 0.98133 1.7026 0.41734 0.51042 0.93867 0.89323 1.5253 1.1839 0.58933 0.29218 1.2693 0.42656 2.0293 0.42656m0 2.7068c-1.104 0-2.1333-0.21875-3.0893-0.62552-0.944-0.41563-1.7773-0.99167-2.484-1.7172-0.71734-0.72396-1.2747-1.576-1.6893-2.5401-0.41066-0.96146-0.60533-1.9958-0.60533-3.1094 0-1.0958 0.19467-2.1333 0.60533-3.1036 0.41467-0.96927 0.972-1.8203 1.6707-2.5271 0.70133-0.7224 1.5267-1.2959 2.4947-1.7104 0.964-0.40934 1.9933-0.612 3.0973-0.612 1.1013 0 2.1293 0.20266 3.0747 0.612 0.96 0.41453 1.788 0.988 2.5093 1.7104 0.70133 0.70678 1.268 1.5578 1.6707 2.5271 0.408 0.97032 0.612 2.0078 0.612 3.1036 0 1.1136-0.204 2.1479-0.612 3.1094-0.40267 0.96406-0.96934 1.8161-1.6707 2.5401-0.72133 0.72552-1.5493 1.3016-2.5093 1.7172-0.95 0.4-1.98 0.62-3.08 0.62m-17.613-15.541h2.86v15.13h-2.86v-15.13m-13.306 6.8037c0.72187 0 1.2955-0.20939 1.6848-0.64115 0.40934-0.42136 0.60667-0.93491 0.60667-1.5427 0-0.64947-0.208-1.1771-0.632-1.588-0.42267-0.40678-0.97973-0.61615-1.6595-0.61615h-2.9921v4.388zm-5.7469-6.8052h5.7229c0.96414 0 1.7635 0.15054 2.4235 0.44 0.66533 0.27454 1.208 0.648 1.6107 1.0907 0.40666 0.4532 0.70933 0.9344 0.90666 1.4677 0.18934 0.53334 0.27334 1.0297 0.27334 1.5151 0 0.95469-0.208 1.7906-0.62534 2.5318-0.40666 0.72396-1.0507 1.3214-1.9093 1.7521l3.4907 6.3281h-3.2093l-3.0665-5.9641h-2.8624v5.9641h-2.7548v-15.125m-12.605 6.8052c0.7308 0 1.2928-0.20939 1.6907-0.64115 0.39266-0.42136 0.6-0.93491 0.6-1.5427 0-0.64947-0.20734-1.1771-0.63174-1.588-0.42346-0.40678-0.97293-0.61615-1.6589-0.61615h-2.9921v4.388zm-5.7468-6.8052h5.7281c0.95307 0 1.7599 0.15054 2.4265 0.44 0.66613 0.27454 1.1948 0.648 1.6088 1.0907 0.41053 0.4532 0.70946 0.9344 0.8996 1.4677 0.18946 0.53334 0.2848 1.0297 0.2848 1.5151 0 0.95469-0.21774 1.7906-0.63387 2.5318-0.41667 0.72396-1.0489 1.3214-1.9109 1.7521l3.4876 6.3281h-3.2152l-3.0593-5.9641h-2.8615v5.9641h-2.7547v-15.125m-11.294 8.9401-1.9943-5.8812-2.0204 5.8812zm-3.3833-8.9401h2.9511l5.7396 15.125h-3.1715l-1.3145-3.8349h-5.6287l-1.3161 3.8349h-2.9927l5.7328-15.125m-26.546 0h2.6495l4.5423 7.1442 4.4823-7.1442h2.6568l0.72547 15.128h-2.7745l-0.50827-10.484-3.9803 6.1786h-1.3443l-4.0015-6.012-0.49693 10.317h-2.6817l0.7312-15.128" fill="#2a3692"/><path id="path30" d="m163.74 13.317c-8.59-8.5877-19.96-13.317-32.03-13.317h-33.749c-1.6964 0-2.7479 1.9493-2.7479 5.0933s1.0515 5.0973 2.7479 5.0973h33.749c9.3461 0 18.163 3.668 24.823 10.329 6.6613 6.6613 10.332 15.476 10.332 24.825 0 9.3467-3.6707 18.163-10.332 24.824-6.6627 6.66-15.477 10.332-24.823 10.332h-24.136c-1.4713 0-2.6647-1.1947-2.6647-2.6613v-37.801c0-1.6947-1.9509-2.748-5.0937-2.748-3.1457 0-5.0957 1.0533-5.0957 2.748v45.668c0 2.7507 2.2337 4.9827 5.0957 4.9827h31.895c12.066 0 23.445-4.7267 32.03-13.313 8.5867-8.5867 13.317-19.964 13.317-32.031s-4.7307-23.444-13.317-32.028" fill="#2a3692"/><path id="path40" d="m255.68 181.93-9.6547-21.513h-0.39467l-9.5773 21.513zm-35.568 16.647 24.105-52.845c0.232-0.47066 0.94266-0.864 1.3373-0.864h0.78267c0.392 0 1.1013 0.39334 1.3307 0.864l23.955 52.845c0.47067 1.02-0.15867 2.0413-1.3373 2.0413h-4.948c-0.94 0-1.4893-0.47333-1.8067-1.176l-4.864-10.756h-25.68c-1.5667 3.608-3.2173 7.1427-4.7867 10.756-0.23466 0.54933-0.864 1.176-1.8067 1.176h-4.9453c-1.1773 0-1.8067-1.0213-1.336-2.0413m-33.893-45.543h-12.8c-0.86266 0-1.4893-0.708-1.4893-1.4893v-4.3987c0-0.784 0.62667-1.4893 1.4893-1.4893h33.763c0.86666 0 1.4893 0.70533 1.4893 1.4893v4.3987c0 0.78133-0.62267 1.4893-1.4893 1.4893h-12.795v46.095c0 0.78133-0.70933 1.4893-1.4947 1.4893h-5.1827c-0.78533 0-1.4907-0.708-1.4907-1.4893v-46.095m-56.742-5.888c0-0.784 0.62707-1.4907 1.4932-1.4907h5.1805c0.784 0 1.4907 0.70667 1.4907 1.4907v46.169h21.279c0.864 0 1.4933 0.70534 1.4933 1.4933v4.32c0 0.78133-0.62933 1.4907-1.4933 1.4907h-27.95c-0.86613 0-1.4932-0.70933-1.4932-1.4907v-51.983m-59.568 0c0-0.784 0.62653-1.4907 1.4901-1.4907h31.405c0.86613 0 1.4953 0.70667 1.4953 1.4907v4.3987c0 0.78133-0.6292 1.4893-1.4953 1.4893h-24.81v16.02h20.963c0.78587 0 1.4932 0.70667 1.4932 1.4893v4.4c0 0.86134-0.70733 1.4893-1.4932 1.4893h-20.963v16.883h24.81c0.86613 0 1.4953 0.70534 1.4953 1.4933v4.32c0 0.78133-0.6292 1.4907-1.4953 1.4907h-31.405c-0.8636 0-1.4901-0.70933-1.4901-1.4907v-51.983m-51.541 46.02c11.542 0 19.942-8.4787 19.942-20.1 0-11.543-8.4005-19.943-19.942-19.943h-10.366v40.043zm-18.374-46.01c0-0.784 0.62708-1.4907 1.4109-1.4907h18.06c15.154 0 27.56 12.329 27.56 27.401 0 15.233-12.406 27.563-27.56 27.563h-18.06c-0.78392 0.01-1.411-0.7-1.411-1.49v-51.981" fill="#2a3692"/><path id="path52" d="m211.76 254.32c0.38667-0.5588 0.732-1.2052 1.12-1.7667 0.38934-0.55467 0.988-0.73067 1.464-0.34013 0.25867 0.21093 3.5707 2.9709 6.8893 2.9709 2.972 0 4.864-1.8109 4.864-4.0052 0-2.5871-2.2373-4.2204-6.4987-5.9881-4.3933-1.852-7.8387-4.1323-7.8387-9.1281 0-3.3613 2.584-7.9681 9.428-7.9681 4.308 0 7.54 2.2401 7.9667 2.5427 0.34533 0.21453 0.69067 0.81613 0.26 1.4631-0.344 0.51814-0.73333 1.1197-1.0787 1.6369-0.34266 0.55986-0.90133 0.8188-1.504 0.42973-0.304-0.17347-3.3173-2.1511-5.812-2.1511-3.6187 0-4.8693 2.2812-4.8693 3.8724 0 2.4573 1.8947 3.9635 5.4693 5.4292 4.996 2.0213 9.264 4.3891 9.264 9.6411 0 4.4803-4.0093 8.1428-9.608 8.1428-5.2533 0-8.568-2.7557-9.256-3.4027-0.39066-0.3412-0.69333-0.64533-0.26-1.3787m-27.711-24.978c0-0.4292 0.34533-0.8172 0.82133-0.8172h2.8387c0.42933 0 0.81867 0.388 0.81867 0.8172v25.325h11.671c0.47333 0 0.81733 0.3864 0.81733 0.8172v2.3692c0 0.4292-0.344 0.8188-0.81733 0.8188h-15.328c-0.476 0-0.82133-0.3896-0.82133-0.8188v-28.511m-33.524 0c0-0.4292 0.344-0.8172 0.81733-0.8172h17.225c0.47466 0 0.81733 0.388 0.81733 0.8172v2.4151c0 0.43027-0.34267 0.8172-0.81733 0.8172h-13.604v8.7839h11.493c0.43067 0 0.82133 0.39067 0.82133 0.8204v2.4129c0 0.47347-0.39066 0.8172-0.82133 0.8172h-11.493v9.2579h13.604c0.47466 0 0.81733 0.3864 0.81733 0.8172v2.3692c0 0.4292-0.34267 0.8188-0.81733 0.8188h-17.225c-0.47333 0-0.81733-0.3896-0.81733-0.8188v-28.511m-25.125 3.2323h-7.0213c-0.47507 0-0.81667-0.38693-0.81667-0.8172v-2.4151c0-0.4292 0.3416-0.8172 0.81667-0.8172h18.515c0.47733 0 0.81867 0.388 0.81867 0.8172v2.4151c0 0.43027-0.34134 0.8172-0.81867 0.8172h-7.02v25.279c0 0.4292-0.38493 0.8188-0.8136 0.8188h-2.8432c-0.43027 0-0.81667-0.3896-0.81667-0.8188v-25.279m-31.767 22.219c6.1588 0 11.197-4.9948 11.197-11.152 0-6.1145-5.0385-11.241-11.197-11.241-6.112 0-11.156 5.1265-11.156 11.241 0 6.1573 5.0437 11.152 11.156 11.152m0-26.699c8.6124 0 15.502 6.9348 15.502 15.547 0 8.6172-6.8896 15.46-15.502 15.46-8.6125 0-15.46-6.8428-15.46-15.46 0-8.612 6.8473-15.547 15.46-15.547m-52.732 1.2479c0-0.4292 0.38653-0.8172 0.81827-0.8172h2.838c0.4776 0 0.81827 0.388 0.81827 0.8172v12.016h15.764v-12.016c0-0.4292 0.34-0.8172 0.81613-0.8172h2.8396c0.4348 0 0.81813 0.388 0.81813 0.8172v28.511c0 0.4292-0.38333 0.8188-0.81813 0.8188h-2.8396c-0.47613 0-0.81613-0.3896-0.81613-0.8188v-12.444h-15.764v12.444c0 0.4292-0.34067 0.8188-0.81827 0.8188h-2.838c-0.43173 0-0.81827-0.3896-0.81827-0.8188v-28.511" fill="#2a3692"/><path id="path54" d="m230.88 290.26h-189.98v-1.1624h189.98v1.1624" fill="#2a3692"/></svg>
