<?xml version="1.0" encoding="utf-8"?>
<!-- Generator: Adobe Illustrator 27.0.0, SVG Export Plug-In . SVG Version: 6.00 Build 0)  -->
<svg version="1.1" id="Layer_1" xmlns="http://www.w3.org/2000/svg" xmlns:xlink="http://www.w3.org/1999/xlink" x="0px" y="0px"
	 viewBox="0 0 822 671.85" style="enable-background:new 0 0 822 671.85;" xml:space="preserve">
<style type="text/css">
	.st0{fill-rule:evenodd;clip-rule:evenodd;fill:#1B0000;}
	.st1{fill-rule:evenodd;clip-rule:evenodd;fill:#F7A71D;}
	.st2{fill-rule:evenodd;clip-rule:evenodd;fill:#020004;}
	.st3{fill-rule:evenodd;clip-rule:evenodd;fill:#BB5513;}
	.st4{fill-rule:evenodd;clip-rule:evenodd;fill:#FFDA79;}
</style>
<g>
	<path class="st0" d="M368.43,327.05c1.03,0.87,3.94,9.02,6.62,13.42c7.59,12.48,17.32,21.27,29.39,30.26
		c3.96,2.95,19.43,14.12,22.56,17.2c3.33,3.27,6.65,6.49,9.36,10.5c2.34,3.45,5.09,9.66,5.15,15.02c-1.16-1-2.06-2.36-3.15-3.74
		c-3-3.77-7.67-7.9-11.9-10.82c-4.97-3.43-13.29-8.18-19.84-10.22c2.49,7.87,8.81,15.36,10.16,18.33l1.2,1.72
		c-5.61-0.97-24.84-8.34-27.35-11.3c-4.18-1.5-14.4-9.95-16.98-12.49c-4.42-4.34-8.97-10.13-12.62-16.72
		c-8.89-16.03-9.48-29.2-7.94-49.5l1.3-6.09c1.41,18,6.52,35.41,15.67,46.46c-2.46-13.56-6.28-19.87-2.94-37.97L368.43,327.05
		L368.43,327.05z M423.55,318.2l-1.22-1.2c1.26,7.25,8.75,17.93,12.42,21.97l3.99,4.53c2.86,2.99,10.63,11.16,13.86,12.16
		c0.87,1.45,0.36,1.09,2.1,1.41l-2.4-7.15c5.52,4.09,17.57,15.33,18.49,25.02c0.41-0.45,0.32-0.24,0.73-0.99
		c1.48-2.68,1.01-7.67,0.14-10.34c-1.01-3.08-3.13-6.41-4.76-8.51c-7.2-9.27-19.07-17.22-28.28-24.72L423.55,318.2L423.55,318.2z
		 M374.76,278.54c0.03-1.23-0.06-1.5-0.31-2.74l-1.24-3.17c-1.5,23.59,2.75,47,12.58,64.23c0.73,1.37,0.17,0.69,1.21,1.73
		c0.57-5.09,0.29-8.04,1.81-12.93c3.44,8.73,7.93,17.38,14.88,23.07c1.53,1.26,5.8,4.86,7.66,5.51c0.89,1.43,1.07,1.28,2.77,1.92
		l-3.77-11.27c1.54,0.69,3.91,2.44,5.54,3.5c5.06,3.29,11.18,6.21,16.66,8.9c5.45,2.68,18.91,8.36,25.3,9.5
		c-0.09-0.09-0.21-0.21-0.28-0.28l-0.55-0.52c-0.08-0.07-0.19-0.16-0.28-0.23l-2.61-1.66c-1.33-0.79-2.46-1.57-3.69-2.46
		c-12.73-9.25-21.69-16.92-31.75-29.3c-1.77-2.18-3.53-4.39-5.32-6.99c-1.59-2.3-3.01-4.65-4.7-6.77c-0.78,4.16-0.57,6.9-0.69,11.13
		c-4.37-4.33-9.86-13.9-12.54-20.06l-3-7.12c-0.03-0.19-0.15-0.22-0.23-0.32c-0.02-1.66-0.08-1.74-0.8-2.86
		c-0.65,1.7-3.01,8.97-3.78,10.06c-3.98-7.63-8.78-18.04-11.26-26.57C375.96,281.45,375.65,279.71,374.76,278.54L374.76,278.54z
		 M355.29,233.01l1.04,0.13c11.22,0.72,25,1.15,32.77,6.66c1.45,0.85,0.43,0.36,0.87,0.02c-0.84-1.48-1.83-2.65-2.33-3.86
		c2.89,0.41,3.47,0.26,5.37-1.18c4.81-3.65,10.63-6.07,17.27-4.78c8.25,1.6,13.08,8.14,17.68,12.05l-2.64,1.27
		c1.47,0.31,1.85,0.09,2.79,0.91c3.68-0.07,12.56,2.27,16.97,3.03c2.89,0.49,5.86,1.1,8.84,1.15c3.76,0.05,5.67-0.03,6.18,3.75
		c1.18,2.63-0.91,7.06-2.33,8.4c-2.28,2.74-4.22,2.93-8.28,1.82c1.24,4.98,4.21,5.4,9.03,3.81c4.18-1.38,9.55-1.66,7.43,3.52
		c-2.76,0.51-7.66-0.17-11.33,0.12c-7.94,0.64-23.32,2.8-26.72,9.79c2.44-0.89,4.67-2.38,7.45-3.45c10.7-4.11,17.79-0.54,29-1.01
		c-1.14,3.31-2.62,4.13-6.64,3.95c-3.44-0.15-6.23-0.63-9.95-0.45c-12.24,0.59-37.6,12.62-50.5,3.97c0.7,2.45,5.06,5.79,7.77,7.05
		c4.68,2.17,7.42,1.66,12.02,3c-34.88,3.31-33.3-29.2-31.64-31.93l0.24-3.8l-1.3-0.71c-8.54-1.83-14.04-9.21-16.63-11.3
		c0.94,4.98,5.81,8.81,7.53,11.7c-6.83-3.78-7.14-2.93-13.26-8.64C359.68,245.83,353.74,237.65,355.29,233.01L355.29,233.01z
		 M455.58,227.86c-0.36,1.23-0.8,1.49-1.7,2.44c-1.75,1.85-4.06,5.37-4.53,7.92c5.52-0.44,6.67-1.74,8.94-5.4
		c2.23-3.59,4.06-6.03,6.23-9.12c0.5-1.26,0.67-0.42-0.58-0.92c-6.7,0.07-15.03,2.41-17.11,6.71l-1.03,1.27
		c0.65,1.29,1.47,1.59,2.32,2.26C449.61,231.4,452.84,229.2,455.58,227.86L455.58,227.86z M399.49,174.97L399.49,174.97
		L399.49,174.97z M352.15,168.35L352.15,168.35L352.15,168.35z M480.9,116.75L480.9,116.75L480.9,116.75z M257.02,173.55
		c2.97,4.43,19.91,15.29,26.02,17.05c6.93,2,12.54,0.49,18.41-1.49c4.54-1.53,12.04-4.77,16.62-5.15c-2.21,4.18-2.84,6.9-2.84,13.25
		c3.52-2.36,3.43-8.66,14.48-12.5c11.37-3.95,23.68,0.46,33.17,5.56c3.13,1.68,5.53,3.36,8.4,5.33c2.84,1.95,4.83,4.25,7.03,6.7
		c2.2,2.45,3.45,5.75,5.56,8.17c-5.55,8.28,0,4.88,0,22.25c-10.04-6.73-26.7-4.52-37.68-11.07c-1.93-1.16-2.44-2.1-3.97-3.13
		c0,8.22,1.37,12.99,3.49,19.23c1.93,5.71,4.89,10.22,8.7,14.02c3.58,3.56,10.48,7.09,10.08,12.63c-0.26,3.6-10.34,17.05-12.81,21.8
		c-5.4,10.4-10.2,21.65-12.66,33.25c-2.13,10.03-2.87,21.24-2.01,31.6c-2.55-1.87-14.58-27.75-16.72-32.03
		c-1.16-2.31-2.29-4.28-3.3-6.64c-2.05-4.8-4.14-9.06-6.08-13.79c-3.73-9.1-7.73-18.67-11.22-28.06c-1.81-4.86-3.3-9.4-4.98-14.43
		c-1.13-3.39-4.48-12.17-4.55-15.32c7.81-3.75,25-9.28,33.3-11.67c2.17-0.62,3.74-1.14,5.89-1.68c1.85-0.47,4.09-0.98,5.78-1.79
		c0-4.55-0.76-4.26,0.18-10.7c0.28-1.91,0.53-3.33,0.88-5.27c0.3-1.64,0.91-3.2,1.3-4.86c5.32,3.89,5.45,10.99,24.54,14.27
		c5.39,0.93,7.19-0.16,11.91-0.55l0.95-8.54c-0.44-1.08-3.59-4.89-4.62-5.78c-2.85-2.49-9.27-7.02-12.89-8.44
		c-3.09-1.21-30.63,5.46-35.12,6.57c-16.52,4.1-32.21,9.51-47.71,15.72c-3.13,1.25-12.47,5.93-15.15,6.15
		c2.2,9.44,5.43,19.35,8.46,28.46c7.02,21.07,15.57,41.38,25.46,61.16l10.57,20.67c0.76,1.54,1.39,2.4,2.21,3.94
		c1.54,2.89,2.96,5.2,4.42,7.89c5.71,10.56,12.37,20.71,19.03,30.67c3.36,5.01,6.38,9.83,9.97,14.64
		c9.35,12.54,19.36,26.65,30.29,37.87c1.24,1.28,1.54,2.03,2.83,3.33c5.91,5.98,12.1,13.56,18.49,18.9l6.49,5.82
		c2.18,1.66,4.34,3.95,6.56,5.75l7.17,5.61L431,451.66c4.5-3.47,8.32-8.33,12.15-12.47c2.04-2.2,4.07-3.95,6.17-6.14
		c1.24-1.29,1.53-2.02,2.83-3.33c1.32-1.32,1.65-2.05,2.84-3.31c6.01-6.42,11.52-13.55,16.92-20.47l7.92-10.54
		c7.97-10.68,15.5-22.01,22.4-33.45c9.33-15.49,18.23-31.32,26.33-47.51c1.46-2.91,2.7-5.27,4.11-8.2c1.47-3.06,2.42-5.83,3.94-8.84
		c8.08-16.01,14.79-36.45,20.45-53.39c1.44-4.3,5.27-15.83,5.27-19.82c-3.3-0.77-9.86-4.2-13.32-5.62
		c-4.72-1.93-9.19-3.52-14.07-5.34c-14.27-5.32-29.77-9.71-44.94-13.28c-0.94-0.22-2.82-0.69-3.9-0.89c-1.5-0.29-1.66-0.16-2.9,0.88
		c-7.98,6.68-9.78,6.31-21.56,7.82c-5.37,0.69-12.41,0.65-16.7,2.7l-0.32,5.22c1.54-0.15,2.82-0.97,4.51-1.5
		c8.78-2.76,19.39-1.39,27.37,2.59c2.01,1,6.69,3.98,7.73,5.53c-1.28,0.68-2.02,1.27-3.79,1.42c0.96,1.31,1.12,0.92,2.92,1.34
		c14.27,3.35,28.5,7.85,42.19,13.19c2.03,0.79,4.55,2.06,6.49,2.51c-0.17,2.08-1.69,6.28-2.31,8.1c-0.91,2.68-1.59,5.26-2.48,7.93
		l-8.46,23.25c-4.97,12.61-10.07,25.38-16.09,37.39c-5.24,10.44-10.22,21.53-16.11,31.69c-1.63,2.81-4.99,7.56-5.66,10.43
		c-0.13-0.1-5.73-8.81-9.11-12.19c-6.04-6.06-13.36-11.03-19.91-16.53c-9.75-8.19-23.37-25.72-13.01-38.39
		c3.4-4.16,3.95-4.11,8.89-5.31c21.46-5.23,14.85,0.4,24.62-19.39c1.54-3.12,3.09-7,1.97-11.49c-1.06-4.27,2.56-7.66-2.85-9.89
		c-6.12-2.53-13.57-3.11-19.86-5.7c-1.42-0.59-1.56-0.21-1.99-1.8c6.14,1.43,10.16-2.77,12.92-6.49c1.47-1.97,2.61-3.96,4.23-5.71
		c1.61-1.73,4.47-3.35,5.57-4.85c-2.14-0.5-4.47-1.77-6.75-2.24c-2.92-0.6-5.72-0.68-8.48-0.21c-2.8,0.48-4.91,1.17-7.3,2.17
		c-3.75,1.58-9.15,6.79-13.47,4.58c-5.43-2.77,1.19-11.32,1.28-13.83c0.15-4.51-1.64-0.72,1.55-6.13c2.52-4.28,9.48-4.26,14.03-4.9
		c5.58-0.78,12.01-0.64,16.95-1.99c8.75-2.39,16.71-14.27,16.86-21c-1.54,1.03-3.26,3.97-4.84,5.57
		c-5.96,6.02-11.78,9.58-21.66,9.58c1.24-0.86,3.12-1.17,4.74-1.89c1.47-0.65,3.37-1.63,4.26-2.84l-11.28,1.5
		c-3.9,0.42-8.27,0.39-12.86,0.39c2.29-4.76,3.34-8.41,9.55-11.75c15.88-8.54,46.77,5.17,46.77-18.54
		c-2.79,2.05-1.81,7.65-13.25,8.05c-2.92,0.1-3.6,0.89-6.15,0.95l1.42-0.95c0.52-0.28,0.95-0.42,1.58-0.78
		c3.83-2.18,5.16-4.84,6.28-9.33c2.54-10.2,2.41-24.63,7.83-32.87c2.62-3.98,6.5-7.37,11.75-8.6v-0.95
		c-6.33,0-10.97,1.39-14.88,4.05c-5.76,3.92-5.47,7.64-5.47,13.46c-2.03-3.2,0.23-11.87-9.93-19.89c-1.17-0.92-1.37-1.49-2.85-1.89
		c1.07,1.6,2.35,3.08,2.84,5.21c-3.36-2.25-10.23-11.29-11.32-16.6c-0.17-0.81-0.09-0.75-0.31-1.58c-0.04-0.15-0.17-0.59-0.22-0.72
		c-0.39-1.08-0.12-0.45-0.45-0.97c-0.41,4.87-2.41,6.96,2.46,16c4.64,8.64,17.14,13.02,9.45,31.88c-2.21,5.41-1.43,3.5,0.27,7.15
		c0.85,1.82,0.6,2.21,0.6,4.61c-0.44-0.51,0,0.14-0.6-0.82c-4.01-6.52-4.38-4.53-9.62-8.36c-1.28-0.94-2.51-2.25-3.98-2.64
		c0.06-2.59,2.66-6.85,2.37-11.32c-0.22-3.33-1.8-8.52-3.79-9.98c0,3.05,0.48,3.45,0.17,5.81c-0.96,7.2-3.15,7.1-3.72,9.53
		c-0.41,1.77,0.73,2.8-1.19,5.01c0-10.2-3.25-5.46-9.74-14.39c-3.45-4.74-5.26-10.92-5.88-18.26l-1.15,3.58
		c-2,10.07,0.72,18.92,6.35,26.71c9.05,12.54,19.91,14.08,20.36,19.4c-1.79-0.48-2.56-1.95-4.15-2.95
		c-1.34-0.84-3.25-1.89-4.84-2.26c1.75,2.62,4.64,3.37,4.73,7.57l-14.2,0.95c-1.2,2.51-0.53,3.56-1.7,5.87
		c-0.33,0.65-0.26,0.49-0.53,0.89c-0.55,0.83-0.21,0.34-0.61,0.81c0-6.16-1.85-6.43-3.28-10.92c-1.55-4.84,0.05-8.55,0.91-12.27
		c-8.52,2.27-6.63,13.56-6.6,16.56c0.09,11.86-7.12,14.6-11.52,24.96c-1.53,3.6-2.48,4.94-4.59,7.72c-1.7,2.23-4.12,4.32-6.66,5.65
		c-2.87,1.51-5.91,1.91-10.39,1.91c-1.27-5.44-8.95-8.92-7.57-15.11c2.29-10.33,19.36-8.91,21.25-26.13
		c0.38-3.45-0.61-7.8-1.42-10.3c-0.78-2.41-1.94-6.52-3.73-8.57c0,4.65-0.26,17.07-2.55,20.64c-1.9,2.95-10.16,8.28-14.01,9.18
		c0.51-1.91,1.73-1.99,2.37-4.73c-3.51,2.35-8.38,5.02-12.64,6.77c-6.12,2.5-2.49,0.21-14.13-3.19c-5.64-1.65-9.71-2.9-14.57-5.31
		c-6.52-3.24-7.32-5.29-11.67-8.21c1.17,5.02,2.79,6.09,3.31,8.05c-2.66-1.78-5.1-4.18-6.44-7.29c-3.82-8.88-0.37-19.93,4.63-27.65
		c1.04-1.61,1.86-2.66,2.75-4.35c-4.35,1.01-8.81,5.06-11.72,8.16c-9.23,9.83-6.53,25.93-6.73,26.88c-0.68,3.14-5.96,0.39-10-0.9
		c-8.85-2.81-15.7-2.9-22.86-4.59c-1.77-0.42-3.42-1.04-4.75-1.88c-2.25-1.43-1.72-2.29-3.57-3.53c0,3.68,0.97,5.33,2.84,7.1
		c-3.36-0.28-6.76-4.47-5.06-8.35c3.49-7.97,32.17-6.82,43.46-31.35c1.51-3.28,2.74-7.15,3.19-11.48
		c0.55-5.25-0.41-11.17-0.41-14.61c-1.45,1.07-1.02,1.66-2.1,5.48c-3.04,10.69-6.03,18.04-16.2,23.56c-2.89,1.57-5.51,2.61-7,4.83
		l-1.68,2.58c0-4.12,1.75-4.29,3.31-6.63c-1.16-5-4.54-10.26-0.65-18.16c1.04-2.12,1.9-2.9,3.01-4.56c-3.9,0.91-8.56,5.46-9.76,9.64
		c-1.87,6.53-0.03,12.57-1.21,18.2c-0.76,3.64-14.21,8.35-17.08,4.47c-3.07-4.14-1.6-26.49-0.54-31.08
		c1.21-5.23,3.11-9.98,5.79-13.61c9.29-12.55,20.95-13.96,22.8-16.49c-14.1,0-25.69,5.43-32.46,15.82
		c-4.49,6.89-3.03,9.76-4.94,11.16c-0.11-1.31-0.45-2.5-0.71-4.06c-0.48-2.88,0.04-2.17,0.23-4.46c-10.85,0-20.24-3.9-26.94-10.92
		c-0.01-0.01-0.57-0.65-0.66-0.76c-1.63-2.01-2.56-3.71-3.17-6.3l-0.29,0.67c-0.13,0.36-0.26,0.71-0.35,1.09
		c-0.17,0.74-0.23,0.83-0.16,1.91c1.35,21.51,24.41,20.26,27.86,29.38c1.56,4.13-0.09,13.12-0.08,19.01
		c0.02,7.99-0.91,6.84-0.07,14.27c0.78,6.89-0.83,11.26,2.84,23.19c3.01,9.77,8.32,9.5,20.09,11.15c5.84,0.82,4.89,1.22,8.38,2.04
		v0.95c-2.91,0.68-12.27,5.35-17.77,4.55c-1.96-0.28-5.06-0.77-6.84-0.77c0.37,0.32,0.21,0.24,0.84,0.58
		c0.67,0.37,0.48,0.25,1.31,0.59c2.49,1.02,5.42,2.15,8.27,2.15v0.47c-7.49,0-10.96-1.68-18.26-4.46
		C270.49,178.91,258.83,173.7,257.02,173.55z"/>
	<path class="st1" d="M395.23,238.44c3.63-6.39,17.41-9.72,25.87,6.55c-6.48-2.72-2.1-2.6-10.76-1.97c-5.47,0.4-6.71-1.84-6.47-7.05
		C399.45,236.25,398.68,237.43,395.23,238.44L395.23,238.44z M389.1,239.79c-1.27,0.63-9.32-3.69-16.39-3.2l3.88,3.55l-20.27-7.01
		l-1.04-0.13c0.98,4.41,6.11,10.03,8.59,11.54l0.37-6.49l4.72,4.81c4.1,4.57,14.44,12.1,15.36,13.36l1.3,0.71l-0.24,3.8
		c0.17,3.42-1.56,6.42,5.52,11.78c2.88,2.18,7.86,4.68,12.64,4.68c-3.06-5.02-8.37-10.85-6.91-20.36c2.06,2.7,2.22,5.43,7.44,9.14
		c10.48,7.45,23.43,0.41,42.41-0.17c-0.6-3.13-1.2-3.79-0.89-7.33c4.17,1.85,6.61,4.55,12.17,2.06c1.42-1.35,3.51-5.77,2.33-8.4
		l-0.04,1.97c-5.16-5.64-5.87-2.12-16.8-4.57c-0.81-0.18-15.1-4.42-15.16-5.33c-0.94-0.82-1.32-0.61-2.79-0.91l2.64-1.27
		c-4.6-3.91-9.43-10.45-17.68-12.05c-6.64-1.29-12.46,1.14-17.27,4.78c-1.9,1.44-2.48,1.6-5.37,1.18c0.5,1.21,1.49,2.38,2.33,3.86
		C389.53,240.16,390.56,240.64,389.1,239.79z"/>
	<path class="st2" d="M213.47,598.59c7.73,0,6.11,0.59,7.41-3.95l4.49-14.92c2.05-6.42,3.37-11.11,4.57-17.67
		c0.44-2.41-0.56-1.08,1.05-2.26c0,3.63,1.09,7.43,1.95,10.36l7.84,26.71c0.74,2.19-0.35,1.75,6.77,1.75c2.14,0,1.97-2.63,2.46-4.64
		c0.47-1.95,0.95-3.79,1.45-6.13c0.79-3.74,1.93-7.9,2.76-11.91c1.64-7.94,3.8-16.26,5.64-24.18h-8.05c-0.05,2.37-1.3,6.95-1.8,9.09
		c-1.81,7.71-4.83,20.39-4.83,27.83c-1.36-1-0.58,0.66-1.35-4.33c-0.33-2.13-0.62-3.08-1.11-5.04c-0.79-3.14-1.6-5.96-2.57-9.26
		c-0.91-3.1-1.82-5.91-2.84-9c-0.78-2.36-2.35-7.01-2.54-9.29h-8.05c-0.61,1.26-1.02,2.78-1.42,4.26
		c-2.07,7.6-6.54,20.03-7.92,27.58c-0.14,0.79-0.26,1.74-0.38,2.46l-0.69,2.62c-0.65-2.77-0.77-6.89-1.29-9.59l-5.81-27.32h-8.05
		l2.83,11.84c0.96,3.92,1.84,8.1,2.75,11.93l4.24,18.01C211.39,595.45,211.51,598.59,213.47,598.59z"/>
	<path class="st1" d="M353.08,318.71c0.54,1.22,1.25,12.91,1.98,16.22c2.38,10.68,7.74,22.69,14.2,31.19
		c1.39,1.83,3.3,3.61,4.14,5.27c-3.96-1.39-5.76-3.63-8.86-5.34c3.17,9.63,16.2,23.2,24.81,29.72c2.32,1.75,1.31,1.5,1.26,1.65
		c2.51,2.97,21.73,10.33,27.35,11.3l-1.2-1.72c-7.48-3.99-29.29-31.84-30.8-38.2l7.85,3.14l-7.8-9.79
		c-7.27-9.81-14.63-22.69-17.59-35.1l-1.32-5.95c-3.34,18.1,0.48,24.42,2.94,37.97c-9.14-11.05-14.25-28.46-15.67-46.46
		L353.08,318.71z"/>
	<path class="st3" d="M385.4,260.73c-1.66,2.73-3.24,35.24,31.64,31.93c-4.6-1.34-7.33-0.83-12.02-3c-2.72-1.26-7.07-4.59-7.77-7.05
		c12.9,8.65,38.26-3.37,50.5-3.97c3.72-0.18,6.52,0.3,9.95,0.45c4.02,0.18,5.5-0.65,6.64-3.95c-11.21,0.47-18.3-3.1-29,1.01
		c-2.78,1.07-5.01,2.56-7.45,3.45c3.4-6.99,18.78-9.15,26.72-9.79c3.67-0.29,8.58,0.39,11.33-0.12c2.11-5.18-3.25-4.9-7.43-3.52
		c-4.83,1.59-7.79,1.17-9.03-3.81c4.06,1.11,6,0.92,8.28-1.82c-5.55,2.49-8-0.21-12.17-2.06c-0.31,3.54,0.3,4.2,0.89,7.33
		c-18.99,0.57-31.94,7.62-42.41,0.17c-5.21-3.71-5.38-6.44-7.44-9.14c-1.46,9.51,3.85,15.34,6.91,20.36
		c-4.78-0.01-9.75-2.5-12.64-4.68C383.84,267.15,385.57,264.15,385.4,260.73z"/>
	<path class="st2" d="M591.65,562.14l-0.54-0.92L591.65,562.14z M591.65,562.14l20.69,35.16c1.08,1.2,1.77,1.27,3.89,1.33
		c0.32,0.01,3.21-0.01,3.35-0.04c2.2-0.46,1.43-2.92,1.42-5.68l0-41.18h-8.05l0.02,28.37c0.2,2.36,0.73,6.19,0.92,8.54
		c-0.32-0.37-0.24-0.21-0.58-0.84l-15.01-26.64c-1.27-2.11-4.72-7.24-5.23-9.44h-8.52v46.86c8.09,0,7.66,0.81,7.61-3.27l-0.04-22.29
		C592.13,568.76,591.65,565.88,591.65,562.14z"/>
	<path class="st3" d="M416.77,406.99c-1.36-2.97-7.68-10.46-10.16-18.33c6.55,2.05,14.88,6.8,19.84,10.22
		c4.23,2.92,8.9,7.05,11.9,10.82c1.1,1.38,1.99,2.74,3.15,3.74c-0.06-5.36-2.81-11.56-5.15-15.02c-2.71-4.01-6.03-7.22-9.36-10.5
		c-3.13-3.08-18.6-14.25-22.56-17.2c-12.07-8.99-21.8-17.78-29.39-30.26c-2.68-4.4-5.58-12.54-6.62-13.42
		c2.96,12.41,10.32,25.29,17.59,35.1l7.8,9.79l-7.85-3.14C387.48,375.16,409.29,403,416.77,406.99z"/>
	<path class="st2" d="M432.62,573.5h-9.94v-15.15c9.4,0,17.51-1.6,17.51,8.05C440.19,570.83,436.92,573.5,432.62,573.5L432.62,573.5
		z M414.63,597.17c0,2.06,2.01,1.42,6.63,1.42c1.09,0,1.42-0.33,1.42-1.42V580.6c10.23,0,5.98-2.42,15.29,13.1
		c1.54,2.57,1.67,3.67,3.16,4.41c0.1,0.06,0.27,0.01,0.33,0.14c0.23,0.55,6.7,0.33,7.24,0.33c-0.43-1.84-4.11-7.89-5.29-9.85
		c-1.91-3.16-3.63-6.62-5.59-9.55c8.72-0.73,14.88-16.19,5.43-23.89c-2.32-1.89-5.75-3.57-9.69-3.57h-18.93V597.17z"/>
	<path class="st3" d="M411.34,354.23c0.89,1.43,1.07,1.28,2.77,1.92l-3.77-11.27c1.54,0.69,3.91,2.44,5.54,3.5
		c5.06,3.29,11.18,6.21,16.66,8.9c5.45,2.68,18.91,8.36,25.3,9.5c-0.09-0.09-0.21-0.21-0.28-0.28l-0.55-0.52
		c-0.08-0.07-0.19-0.16-0.28-0.23l-2.61-1.66c-1.33-0.79-2.46-1.57-3.69-2.46c-12.73-9.25-21.69-16.92-31.75-29.3
		c-1.77-2.18-3.53-4.39-5.32-6.99c-1.59-2.3-3.01-4.65-4.7-6.77c-0.78,4.16-0.57,6.9-0.69,11.13c-4.37-4.33-9.86-13.9-12.54-20.06
		l-3-7.12c-0.03-0.19-0.15-0.22-0.23-0.32c0.24,4.46,2.24,11.57,3.7,15.52c2.68,7.26,4.57,9.48,6.04,13.13
		c-3.18-1.33-5.68-3.54-7.92-5.16c1.41,5.06,4.89,11.48,7.53,15.74c1.49,2.42,3.26,4.76,4.92,6.91
		C407.47,349.64,411.39,353.9,411.34,354.23z"/>
	<path class="st2" d="M528.23,597.17c0,1.09,0.33,1.42,1.42,1.42h27.45c1.98,0,1.42-1.64,1.42-5.68c0-1.09-0.33-1.42-1.42-1.42
		h-21.3v-13.73h20.83v-6.63H535.8v-12.78h22.25v-6.63h-29.82V597.17z"/>
	<path class="st2" d="M376.77,597.17c0,1.09,0.33,1.42,1.42,1.42h28.4v-7.1h-22.25v-13.73h19.41c2.06,0,1.42-2.01,1.42-6.63h-20.83
		v-12.78h20.83c2.06,0,1.42-2.01,1.42-6.63h-29.82V597.17z"/>
	<path class="st2" d="M266.49,597.17c0,1.09,0.33,1.42,1.42,1.42h26.98c2.1,0,1.42-2.21,1.42-7.1h-22.25v-13.73h20.35v-6.63h-20.35
		v-12.78h21.77v-6.63h-29.35V597.17z"/>
	<path class="st2" d="M477.11,584.86c0,8.45-9.83,8.21-16.29,6.82c-2.35-0.5-3.55-1.46-5.48-1.62c-0.45,0.93-1.62,4.97-1.89,6.15
		c1.66,0.39,3.55,1.33,5.29,1.81c9.89,2.66,25.94,1.55,25.94-13.16c0-14.97-23.27-11.52-23.52-21.36
		c-0.17-6.66,8.91-6.51,14.33-5.42c2.24,0.45,3.14,1.17,5.4,1.22c0.14-1.73,1-3.89,1.42-5.68c-5.99-3.17-14.84-3.97-21.52-1.17
		c-7.33,3.08-8.82,11.85-5.38,17.65C460.46,578.6,477.11,577.32,477.11,584.86z"/>
	<path class="st2" d="M336.06,556.94c0,1.09,0.33,1.42,1.42,1.42h12.31v38.81c0,2.06,2.01,1.42,6.63,1.42
		c1.09,0,1.42-0.33,1.42-1.42v-38.81h13.73v-6.63h-35.5V556.94z"/>
	<path class="st2" d="M488,558.36h13.73v40.23c5.15,0,7.57,0.72,7.57-1.42v-38.81h13.73v-6.63H488V558.36z"/>
	<path class="st2" d="M299.62,558.36h13.73v38.81c0,2.02,1.82,1.42,6.15,1.42c1.09,0,1.42-0.33,1.42-1.42v-38.81h13.73v-6.63h-35.03
		V558.36z"/>
	<path class="st1" d="M385.79,336.85c0.73,1.37,0.17,0.69,1.21,1.73c0.57-5.09,0.29-8.04,1.81-12.93
		c3.44,8.73,7.93,17.38,14.88,23.07c1.53,1.26,5.8,4.86,7.66,5.51c0.05-0.34-3.88-4.59-4.88-5.9c-1.66-2.15-3.42-4.49-4.92-6.91
		c-2.63-4.26-6.12-10.67-7.53-15.74c2.24,1.62,4.74,3.84,7.92,5.16c-1.47-3.65-3.36-5.87-6.04-13.13
		c-1.46-3.95-3.46-11.06-3.7-15.52c-0.02-1.66-0.08-1.74-0.8-2.86c-0.65,1.7-3.01,8.97-3.78,10.06
		c-3.98-7.63-8.78-18.04-11.26-26.57c-0.4-1.38-0.71-3.12-1.6-4.29c0.43,8.68,6.26,24.69,7.18,31.24c-1.58-1.43-2.24-2.6-3.71-4.11
		C379.01,314.55,386.57,335.4,385.79,336.85z"/>
	<path class="st3" d="M452.6,355.66c0.87,1.45,0.36,1.09,2.1,1.41l-2.4-7.15c5.52,4.09,17.57,15.33,18.49,25.02
		c0.41-0.45,0.32-0.24,0.73-0.99c1.48-2.68,1.01-7.67,0.14-10.34c-1.01-3.08-3.13-6.41-4.76-8.51c-7.2-9.27-19.07-17.22-28.28-24.72
		l-15.07-12.17c1.65,3.59,9.12,11,12.37,13.92c1.51,1.36,2.7,2.88,4.08,4.23l-5.29-1.87c3.32,5.55,11.83,14.07,16.43,18.87
		C452.51,354.78,452.86,354.99,452.6,355.66z"/>
	<path class="st2" d="M387.18,528.54c-9.5,0-10.89-5.92-10.89-14.67c0-8.1,3.78-11.83,10.89-11.83c7.33,0,9.94,5.89,9.94,13.25
		C397.12,522.64,394.51,528.54,387.18,528.54L387.18,528.54z M371.56,514.81c0,8.83,4.33,17.51,12.78,17.51
		c5.92,0,9.51,0.23,14.07-5.33c4.24-5.17,4.24-18.24,0-23.42C390.55,494,371.56,496.33,371.56,514.81z"/>
	<polygon class="st2" points="340.8,531.85 345.53,531.85 345.53,516.7 361.15,516.7 361.15,531.85 365.88,531.85 365.88,498.72 
		361.15,498.72 361.15,512.44 345.53,512.44 345.53,498.72 340.8,498.72 	"/>
	<path class="st2" d="M566.57,598.59h6.15c1.09,0,1.42-0.33,1.42-1.42v-45.44h-7.57V598.59z"/>
	<path class="st2" d="M432.15,531.85h21.3v-3.79h-16.57V516.7h15.15c0-5.62,2.1-4.26-15.15-4.26v-9.94h16.09v-3.79h-20.83V531.85z"
		/>
	<path class="st4" d="M390.63,397.41c0.05-0.15,1.06,0.11-1.26-1.65c-8.61-6.51-21.64-20.08-24.81-29.72c3.1,1.7,4.9,3.94,8.86,5.34
		c-0.84-1.66-2.75-3.44-4.14-5.27c-6.46-8.5-11.82-20.51-14.2-31.19c-0.74-3.31-1.45-15-1.98-16.22
		c-1.53,20.29-0.95,33.47,7.94,49.5c3.66,6.59,8.21,12.38,12.62,16.72C376.22,387.46,386.45,395.91,390.63,397.41z"/>
	<path class="st2" d="M459.12,531.85h20.35v-2.84c0-1.09-0.33-1.42-1.42-1.42h-14.2v-28.87h-4.73V531.85z"/>
	<path class="st2" d="M403.75,502.98l9.94-0.47v29.35h4.26v-29.35c11.52,0,10.41,2.31,10.41-3.79h-24.61V502.98z"/>
	<path class="st4" d="M385.79,336.85c0.78-1.45-6.78-22.3-7.55-31.19c1.46,1.51,2.12,2.68,3.71,4.11
		c-0.92-6.55-6.75-22.56-7.18-31.24c0.03-1.23-0.06-1.5-0.31-2.74l-1.24-3.17C371.71,296.22,375.96,319.62,385.79,336.85z"/>
	<path class="st3" d="M384.34,256.23c-0.92-1.26-11.26-8.79-15.36-13.36l-4.72-4.81l-0.37,6.49c-2.48-1.51-7.61-7.13-8.59-11.54
		c-1.55,4.64,4.39,12.83,6.69,14.97c6.11,5.72,6.43,4.87,13.26,8.64c-1.73-2.89-6.59-6.72-7.53-11.7
		C370.29,247.02,375.79,254.4,384.34,256.23z"/>
	<path class="st1" d="M452.6,355.66c0.27-0.67-0.09-0.88-1.45-2.3c-4.6-4.8-13.11-13.31-16.43-18.87l5.29,1.87
		c-1.39-1.35-2.57-2.87-4.08-4.23c-3.25-2.93-10.72-10.33-12.37-13.92l-1.22-1.2c1.26,7.25,8.75,17.93,12.42,21.97l3.99,4.53
		C441.6,346.49,449.37,354.66,452.6,355.66z"/>
	<path class="st0" d="M395.23,238.44c3.45-1.01,4.22-2.18,8.64-2.47c-0.24,5.21,1,7.45,6.47,7.05c8.66-0.63,4.28-0.74,10.76,1.97
		C412.63,228.72,398.85,232.05,395.23,238.44z"/>
	<path class="st4" d="M460.1,252.15c-0.51-3.79-2.42-3.7-6.18-3.75c-2.98-0.04-5.95-0.66-8.84-1.15c-4.42-0.75-13.3-3.1-16.97-3.03
		c0.06,0.91,14.34,5.14,15.16,5.33c10.93,2.45,11.63-1.07,16.8,4.57L460.1,252.15z"/>
	<path class="st3" d="M455.58,227.86c-0.36,1.23-0.8,1.49-1.7,2.44c-1.75,1.85-4.06,5.37-4.53,7.92c5.52-0.44,6.67-1.74,8.94-5.4
		c2.23-3.59,4.06-6.03,6.23-9.12c-2.4,0.88-6.65,5.34-8.07,7.41c0.48-2.17,1.7-3.51,2.51-5.06c-0.77,0.32-1.22,0.51-1.84,0.82
		c-0.37,0.19-0.61,0.33-0.94,0.53L455.58,227.86z"/>
	<path class="st4" d="M389.1,239.79c-7.77-5.5-21.55-5.93-32.77-6.66l20.27,7.01l-3.88-3.55
		C379.78,236.1,387.84,240.42,389.1,239.79z"/>
	<path class="st1" d="M446.83,229.51l-1.03,1.27c0.65,1.29,1.47,1.59,2.32,2.26c1.49-1.64,4.72-3.83,7.46-5.17l0.61-0.45
		c0.33-0.2,0.56-0.34,0.94-0.53c0.62-0.31,1.08-0.5,1.84-0.82c-0.82,1.55-2.04,2.89-2.51,5.06c1.41-2.08,5.67-6.53,8.07-7.41
		c0.5-1.26,0.67-0.42-0.58-0.92c-4,1.92-7.05,1.71-11.62,4.47l0.18-1.16c-1.18,0.57-2.27,1.09-3.28,1.92
		c-0.75,0.62-0.64,0.75-1.22,1.18C446.83,230.12,447.59,230.23,446.83,229.51z"/>
	<path class="st4" d="M446.83,229.51c0.76,0.72,0,0.61,1.17-0.29c0.57-0.44,0.47-0.56,1.22-1.18c1.01-0.83,2.1-1.35,3.28-1.92
		l-0.18,1.16c4.57-2.76,7.62-2.55,11.62-4.47C457.24,222.87,448.91,225.2,446.83,229.51z"/>
	<polygon class="st0" points="487.05,178.28 487.52,178.28 487.13,177.73 	"/>
	<polygon class="st0" points="257.02,173.55 257.02,173.08 256.47,173.47 	"/>
</g>
</svg>
